<?xml version="1.0" standalone="no"?>
<!DOCTYPE svg PUBLIC "-//W3C//DTD SVG 20010904//EN"
 "http://www.w3.org/TR/2001/REC-SVG-20010904/DTD/svg10.dtd">
<svg version="1.0" xmlns="http://www.w3.org/2000/svg"
 width="858.000000pt" height="64.000000pt" viewBox="0 0 858.000000 64.000000"
 preserveAspectRatio="xMidYMid meet">

<g transform="translate(0.000000,64.000000) scale(0.100000,-0.100000)"
fill="#000000" stroke="none">
<path d="M710 460 c-9 -6 -10 -10 -3 -10 6 0 14 -15 16 -32 3 -29 4 -27 5 10
1 23 1 42 0 42 -2 0 -10 -5 -18 -10z"/>
<path d="M4896 445 c-9 -13 -16 -28 -16 -32 0 -4 6 1 12 12 12 19 13 18 19
-10 6 -27 7 -26 8 13 0 23 -1 42 -3 42 -2 0 -11 -11 -20 -25z"/>
<path d="M782 420 c0 -19 2 -29 5 -22 2 6 11 12 18 12 7 0 16 -6 18 -12 3 -7
6 3 6 22 0 28 -2 32 -10 18 -5 -10 -14 -18 -19 -18 -5 0 -11 8 -13 18 -3 9 -5
1 -5 -18z"/>
<path d="M844 436 c-9 -24 4 -48 23 -44 12 2 18 12 18 28 0 29 -32 41 -41 16z
m33 -32 c-3 -3 -12 -4 -19 -1 -8 3 -5 6 6 6 11 1 17 -2 13 -5z"/>
<path d="M910 431 c0 -11 -4 -23 -10 -26 -20 -12 -9 -21 25 -21 26 0 34 4 30
14 -3 7 -5 22 -5 33 0 12 -7 19 -20 19 -13 0 -20 -7 -20 -19z m30 -17 c0 -8
-4 -14 -10 -14 -5 0 -10 9 -10 21 0 11 5 17 10 14 6 -3 10 -13 10 -21z"/>
<path d="M964 436 c-9 -24 3 -46 26 -46 17 0 21 5 18 27 -3 31 -34 44 -44 19z"/>
<path d="M1028 420 c-3 -16 -1 -30 4 -30 4 0 8 11 8 25 0 34 18 32 23 -2 4
-26 4 -26 6 5 1 25 -3 32 -18 32 -13 0 -20 -9 -23 -30z"/>
<path d="M1089 448 c-1 -2 -2 -15 -3 -30 -2 -29 8 -38 17 -15 4 9 8 8 16 -3 8
-12 11 -8 11 18 0 25 -4 32 -20 32 -11 0 -21 -1 -21 -2z m31 -18 c0 -5 -4 -10
-10 -10 -5 0 -10 5 -10 10 0 6 5 10 10 10 6 0 10 -4 10 -10z"/>
<path d="M4972 420 c0 -19 2 -29 5 -22 2 6 11 12 18 12 7 0 16 -6 18 -12 3 -7
5 1 5 17 0 17 -2 24 -5 18 -7 -19 -31 -16 -36 5 -3 9 -5 1 -5 -18z"/>
<path d="M5034 436 c-9 -23 3 -46 23 -45 17 1 17 2 1 6 -20 5 -24 28 -7 39 6
3 16 0 21 -7 8 -12 9 -11 5 1 -5 21 -36 25 -43 6z"/>
<path d="M5101 428 c1 -17 3 -18 6 -5 6 23 23 22 23 -3 0 -13 -7 -20 -20 -20
-11 0 -20 -3 -20 -7 0 -5 13 -8 28 -8 26 0 28 2 22 30 -7 37 -41 48 -39 13z"/>
<path d="M5161 437 c-16 -20 -3 -47 23 -46 16 1 17 2 4 6 -10 2 -18 13 -18 24
0 20 15 26 23 9 3 -6 4 -5 3 2 -3 18 -22 20 -35 5z"/>
<path d="M5225 435 c-3 -8 -7 -22 -10 -30 -2 -8 0 -15 5 -15 6 0 10 11 10 25
0 34 18 32 23 -2 4 -26 4 -26 6 5 1 23 -3 32 -14 32 -9 0 -18 -7 -20 -15z"/>
<path d="M5306 441 c-4 -5 -2 -20 3 -33 9 -21 10 -21 10 10 1 32 -3 39 -13 23z"/>
<path d="M5280 416 c0 -22 3 -27 11 -19 8 8 8 16 0 30 -9 16 -10 14 -11 -11z"/>
</g>
</svg>
